<?xml version="1.0" encoding="UTF-8" standalone="no"?>
<!-- Generator: Adobe Illustrator 16.0.0, SVG Export Plug-In . SVG Version: 6.00 Build 0)  -->
<svg id="Layer_1" xmlns:rdf="http://www.w3.org/1999/02/22-rdf-syntax-ns#" xmlns="http://www.w3.org/2000/svg" enable-background="new 0 0 512 512" xml:space="preserve" height="345.29" viewBox="0 0 349.46344 345.29431" width="349.46" version="1.1" y="0px" x="0px" xmlns:cc="http://creativecommons.org/ns#" xmlns:dc="http://purl.org/dc/elements/1.1/"><metadata id="metadata17"><rdf:RDF><cc:Work rdf:about=""><dc:format>image/svg+xml</dc:format><dc:type rdf:resource="http://purl.org/dc/dcmitype/StillImage"/><dc:title/></cc:Work></rdf:RDF></metadata>
<path id="path5" fill="#020202" d="m191.11,344.7c-68.237,4.9143-138.05-20.616-186.76-68.701-6.3813-6.5692-5.5492-18.061,1.1831-24.081,6.1833-7.2892,18.566-7.4181,24.947-0.31743,41.662,40.109,100.48,61.797,158.24,57.484,47.982-3.0869,94.463-23.755,129.28-56.858,3.0964-3.1648,7.0504-5.7632,11.604-5.986,11.406-1.3374,21.954,10.583,19.492,21.74-0.69456,4.005-3.2668,7.3409-6.2081,10.008-40.762,39.028-95.484,62.998-151.78,66.711z"/>
<path id="path7" fill="#020202" d="m192.8,277.78c-52.278,5.686-106.56-13.584-143.56-50.94-5.78-6.6034-5.0599-17.401,1.3629-23.335,5.8579-7.1691,17.666-7.9743,24.304-1.4736,23.686,23.351,55.709,38.179,88.914,40.606,40.324,3.3446,81.522-11.955,110.23-40.367,6.6209-6.998,18.953-6.2015,24.912,1.2435,6.4236,6.0624,6.955,17.152,0.7892,23.575-28.455,28.471-66.935,46.583-106.96,50.691z"/>
<path id="path11" fill="#020202" d="m181.95,104.8c-29.201,4.9-58.837-19.213-59.78-48.824-2.709-29.036,22.923-56.589,52.063-55.951,26.197-0.908,50.475,20.825,52.772,46.88,3.735,27.352-17.656,54.738-45.055,57.895z"/>
</svg>
